<svg width="20" height="20" viewBox="0 0 20 20" fill="none" xmlns="http://www.w3.org/2000/svg">
<g clip-path="url(#clip0_55_79)">
<path d="M2.79169 1.6665H10.2084C10.825 1.6665 11.3334 2.17484 11.3334 2.7915V4.02484C11.3334 4.47484 11.05 5.03317 10.775 5.3165L8.35836 7.44984C8.02503 7.73317 7.80003 8.2915 7.80003 8.7415V11.1582C7.80003 11.4915 7.57503 11.9415 7.29169 12.1165L6.50836 12.6248C5.77503 13.0748 4.76669 12.5665 4.76669 11.6665V8.6915C4.76669 8.29984 4.54169 7.7915 4.31669 7.50817L2.18336 5.25817C1.90003 4.97484 1.67503 4.47484 1.67503 4.13317V2.8415C1.66669 2.17484 2.17503 1.6665 2.79169 1.6665Z" stroke="black" stroke-width="1.5" stroke-miterlimit="10" stroke-linecap="round" stroke-linejoin="round"/>
<path d="M1.66663 10V12.5C1.66663 16.6667 3.33329 18.3334 7.49996 18.3334H12.5C16.6666 18.3334 18.3333 16.6667 18.3333 12.5V7.50003C18.3333 4.90003 17.6833 3.2667 16.175 2.4167C15.75 2.17503 14.9 1.9917 14.125 1.8667M10.8333 10.8334H15M9.16663 14.1667H15" stroke="black" stroke-width="1.5" stroke-linecap="round" stroke-linejoin="round"/>
</g>
<defs>
<clipPath id="clip0_55_79">
<rect width="20" height="20" fill="white"/>
</clipPath>
</defs>
</svg>
