<svg width="20" height="17" viewBox="0 0 20 17" fill="none" xmlns="http://www.w3.org/2000/svg">
<path d="M19.6 2.39999C18.9 2.69999 18.1 2.9 17.3 3C18.1 2.5 18.8 1.7 19.1 0.800003C18.3 1.3 17.5 1.6 16.5 1.8C15.8 1 14.7 0.5 13.6 0.5C11.4 0.5 9.59999 2.3 9.59999 4.5C9.59999 4.8 9.6 5.09999 9.7 5.39999C6.4 5.19999 3.39999 3.6 1.39999 1.2C1.09999 1.8 0.899994 2.5 0.899994 3.2C0.899994 4.6 1.6 5.8 2.7 6.5C2 6.5 1.39999 6.3 0.899994 6C0.899994 7.9 2.29999 9.59999 4.09999 9.89999C3.79999 9.99999 3.4 10 3 10C2.7 10 2.5 9.99999 2.2 9.89999C2.7 11.5 4.2 12.7 6 12.7C4.6 13.8 2.9 14.4 1 14.4C0.7 14.4 0.4 14.4 0 14.3C1.8 15.4 3.9 16.1 6.2 16.1C13.6 16.1 17.6 10 17.6 4.7V4.2C18.4 3.9 19.1 3.19999 19.6 2.39999Z" fill="#3A4F39"/>
</svg>
