<svg width="24" height="24" viewBox="0 0 24 24" fill="none" xmlns="http://www.w3.org/2000/svg">
<path d="M12 5.66142C13.16 5.66142 14.1 6.5634 14.1 7.67649C14.1 8.78958 13.16 9.69157 12 9.69157C10.84 9.69157 9.9 8.78958 9.9 7.67649C9.9 6.5634 10.84 5.66142 12 5.66142ZM12 14.2974C14.97 14.2974 18.1 15.6984 18.1 16.3125V17.368H5.9V16.3125C5.9 15.6984 9.03 14.2974 12 14.2974ZM12 3.83826C9.79 3.83826 8 5.55587 8 7.67649C8 9.79712 9.79 11.5147 12 11.5147C14.21 11.5147 16 9.79712 16 7.67649C16 5.55587 14.21 3.83826 12 3.83826ZM12 12.4743C9.33 12.4743 4 13.7601 4 16.3125V19.1912H20V16.3125C20 13.7601 14.67 12.4743 12 12.4743Z" fill="#4B4B4B" fill-opacity="0.89"/>
</svg>
